<svg width="166" height="36" viewBox="0 0 166 36" fill="none" xmlns="http://www.w3.org/2000/svg">
<rect width="166" height="36" rx="6" fill="url(#paint0_linear_1014_14634)"/>
<path fill-rule="evenodd" clip-rule="evenodd" d="M31.9999 19.1138V15.335L25.9999 9.66675H22H21.9999H17.9625L12 15.335V19.1138L22 9.66678L31.9999 19.1138ZM26.0001 25.7267H23.0001V17.0679V13.2891L26.0001 16.1232L32.0001 21.7914V25.5702L26.0001 19.902V25.7267ZM18 25.7267H21V17.0679L21 17.0679V13.2891L21 13.2891V13.2891L18 16.1232L12 21.7914V25.5702L18 19.902V25.7267Z" fill="#111920"/>
<path d="M43.9757 12.575H40.8687V22H43.9757C47.0567 22 49.4877 20.882 49.4877 17.281C49.4877 13.693 47.0567 12.575 43.9757 12.575ZM44.0147 14.447C45.6527 14.447 47.1347 14.798 47.1347 17.281C47.1347 19.777 45.6527 20.128 44.0147 20.128H43.0917V14.447H44.0147ZM57.5577 19.803H55.5817C55.3347 20.219 54.8147 20.505 54.0087 20.505C53.2287 20.505 52.4617 20.037 52.3967 19.049H57.5837C57.7267 16.566 56.2967 14.798 53.9827 14.798C51.9417 14.798 50.2387 16.228 50.2387 18.464C50.2387 20.778 51.7987 22.169 54.0737 22.169C55.4777 22.169 56.9337 21.454 57.5577 19.803ZM52.4227 17.749C52.5397 16.826 53.2287 16.436 53.9827 16.436C54.7887 16.436 55.4257 16.878 55.4517 17.749H52.4227ZM60.8612 15.955V15.006H58.7162V24.275H60.8612V21.064C61.3162 21.831 62.2392 22.169 63.0062 22.169C64.8002 22.169 66.0872 20.791 66.0872 18.503C66.0872 16.215 64.8002 14.85 63.0062 14.85C62.2392 14.85 61.3162 15.188 60.8612 15.955ZM60.7572 18.503C60.7572 17.06 61.4592 16.514 62.3042 16.514C63.1622 16.514 63.8642 17.203 63.8642 18.503C63.8642 19.803 63.1622 20.505 62.3042 20.505C61.4592 20.505 60.7572 19.946 60.7572 18.503ZM69.3163 22V12.575H67.1713V22H69.3163ZM77.8469 18.477C77.8469 15.942 76.0789 14.798 74.1419 14.798C72.2049 14.798 70.4369 15.942 70.4369 18.477C70.4369 21.012 72.2049 22.169 74.1419 22.169C76.0789 22.169 77.8469 21.012 77.8469 18.477ZM72.6209 18.477C72.6209 16.995 73.2969 16.462 74.1419 16.462C74.9869 16.462 75.6629 16.995 75.6629 18.477C75.6629 19.946 75.0129 20.505 74.1419 20.505C73.2709 20.505 72.6209 19.946 72.6209 18.477ZM78.8147 24.275H79.5037C81.3237 24.275 81.8437 23.781 82.5457 22L85.2887 15.006H82.9877L81.6097 19.387L80.3227 15.006H77.9697L80.5827 21.961L80.5177 22.143C80.3097 22.676 80.1407 22.728 79.2437 22.728H78.8147V24.275ZM95.8489 18.477C95.8489 15.942 94.0809 14.798 92.1439 14.798C90.2069 14.798 88.4389 15.942 88.4389 18.477C88.4389 21.012 90.2069 22.169 92.1439 22.169C94.0809 22.169 95.8489 21.012 95.8489 18.477ZM90.6229 18.477C90.6229 16.995 91.2989 16.462 92.1439 16.462C92.9889 16.462 93.6649 16.995 93.6649 18.477C93.6649 19.946 93.0149 20.505 92.1439 20.505C91.2729 20.505 90.6229 19.946 90.6229 18.477ZM99.1122 15.929V15.006H96.9672V22H99.1122V18.412C99.1122 17.125 99.5022 16.514 100.412 16.514C101.452 16.514 101.491 17.333 101.491 18.334V22H103.636V17.801C103.636 15.903 103.077 14.85 101.283 14.85C100.191 14.85 99.4242 15.409 99.1122 15.929ZM110.551 12.575L107.002 22H109.368L109.927 20.323H113.567L114.139 22H116.557L112.995 12.575H110.551ZM110.538 18.516L111.76 14.928L112.969 18.516H110.538ZM119.399 15.955V15.006H117.254V24.275H119.399V21.064C119.854 21.831 120.777 22.169 121.544 22.169C123.338 22.169 124.625 20.791 124.625 18.503C124.625 16.215 123.338 14.85 121.544 14.85C120.777 14.85 119.854 15.188 119.399 15.955ZM119.295 18.503C119.295 17.06 119.997 16.514 120.842 16.514C121.7 16.514 122.402 17.203 122.402 18.503C122.402 19.803 121.7 20.505 120.842 20.505C119.997 20.505 119.295 19.946 119.295 18.503ZM126.047 13.095V15.006H124.942V16.527H126.047V20.037C126.047 21.675 126.645 22 128.361 22H129.726V20.453H129.115C128.4 20.453 128.192 20.323 128.192 19.66V16.527H129.726V15.006H128.192V13.095H126.047ZM133.009 12.575H130.864V14.291H133.009V12.575ZM133.022 15.006H130.864V22H133.022V15.006ZM136.703 15.955V12.575H134.558V22H136.703V21.064C137.158 21.831 138.081 22.169 138.848 22.169C140.642 22.169 141.929 20.791 141.929 18.503C141.929 16.215 140.642 14.85 138.848 14.85C138.081 14.85 137.158 15.188 136.703 15.955ZM136.599 18.503C136.599 17.06 137.301 16.514 138.146 16.514C139.004 16.514 139.706 17.203 139.706 18.503C139.706 19.803 139.004 20.505 138.146 20.505C137.301 20.505 136.599 19.946 136.599 18.503ZM145.158 22V12.575H143.013V22H145.158ZM153.598 19.803H151.622C151.375 20.219 150.855 20.505 150.049 20.505C149.269 20.505 148.502 20.037 148.437 19.049H153.624C153.767 16.566 152.337 14.798 150.023 14.798C147.982 14.798 146.279 16.228 146.279 18.464C146.279 20.778 147.839 22.169 150.114 22.169C151.518 22.169 152.974 21.454 153.598 19.803ZM148.463 17.749C148.58 16.826 149.269 16.436 150.023 16.436C150.829 16.436 151.466 16.878 151.492 17.749H148.463Z" fill="#111920"/>
<defs>
<linearGradient id="paint0_linear_1014_14634" x1="166" y1="18" x2="0" y2="18" gradientUnits="userSpaceOnUse">
<stop stop-color="#FFB607"/>
<stop offset="1" stop-color="#FDDB1C"/>
</linearGradient>
</defs>
</svg>
